# xmcd CD database file
#
# Track frame offsets:
#	150
#	22696
#	52323
#	81214
#	115348
#	147024
#	174585
#	207164
#	240500
#	265441
#
# Disc length: 3965 seconds
#
# Revision: 1
# Processed by: cddbd v1.5.2PL0 Copyright (c) Steve Scherf et al.
# Submitted via: CDex 1.77
#
DISCID=860f7b0a
DTITLE=Pat Metheny and Brad Mehldau - Metheny Mehldau
DYEAR=2006
DGENRE=Jazz
TTITLE0=Unrequited
TTITLE1=Ahmid-6
TTITLE2=Summer Day
TTITLE3=Ring of Life
TTITLE4=Legend
TTITLE5=Find Me in Your Dreams
TTITLE6=Say the Brother's Name
TTITLE7=Bachelors III
TTITLE8=Annie's Bittersweet Cake
TTITLE9=Make Peace
EXTD=YEAR: 2006
EXTT0=
EXTT1=
EXTT2=
EXTT3=
EXTT4=
EXTT5=
EXTT6=
EXTT7=
EXTT8=
EXTT9=
PLAYORDER=
